<svg width="24" height="24" xmlns="http://www.w3.org/2000/svg" xmlns:svg="http://www.w3.org/2000/svg" version="1.0">
  <g id="g2036">
   <path d="m17.66,5.04l0,0.38c-0.5,0.09 -0.87,0.24 -1.13,0.47c-0.36,0.33 -0.8,0.84 -1.08,1.53l-5.75,11.74l-0.38,0l-5.77,-11.89c-0.27,-0.61 -0.64,-0.98 -0.75,-1.12c-0.17,-0.21 -0.38,-0.37 -0.64,-0.49c-0.25,-0.12 -0.59,-0.2 -1.02,-0.23l0,-0.38l5.62,0l0,0.38c-0.65,0.06 -0.96,0.17 -1.15,0.33c-0.19,0.15 -0.29,0.36 -0.29,0.6c0,0.34 0.16,0.87 0.48,1.59l4.26,8.09l4.17,-7.99c0.33,-0.79 0.59,-1.33 0.59,-1.64c0,-0.2 -0.1,-0.39 -0.3,-0.56c-0.2,-0.18 -0.43,-0.31 -0.9,-0.38c-0.03,-0.01 -0.09,-0.02 -0.18,-0.03l0,-0.38l4.21,0z" fill="#000000" id="V1" stroke-width="1px"/>
   <path d="m22.61,5.04l0,0.38c-0.5,0.09 -0.87,0.24 -1.13,0.47c-0.36,0.33 -0.8,0.84 -1.08,1.53l-5.05,11.74l-0.38,0l-5.33,-11.89c-0.27,-0.61 -0.64,-0.98 -0.74,-1.12c-0.17,-0.21 -0.39,-0.37 -0.64,-0.49c-0.25,-0.12 -0.48,-0.2 -0.91,-0.23l0,-0.38l5.51,0l0,0.38c-0.65,0.06 -0.96,0.17 -1.15,0.33c-0.19,0.15 -0.29,0.36 -0.29,0.6c0,0.34 0.16,0.87 0.48,1.59l3.82,8.09l3.47,-7.99c0.32,-0.79 0.59,-1.33 0.59,-1.64c0,-0.2 -0.1,-0.39 -0.3,-0.56c-0.2,-0.18 -0.54,-0.31 -1.01,-0.38c-0.04,-0.01 -0.09,-0.02 -0.18,-0.03l0,-0.38l4.32,0z" fill="#000000" id="V2" stroke-width="1px"/>
 </g>
</svg>