<?xml version="1.0" encoding="UTF-8"?>
<svg width="111px" height="28px" viewBox="0 0 111 28" version="1.1" xmlns="http://www.w3.org/2000/svg" xmlns:xlink="http://www.w3.org/1999/xlink">
    <!-- Generator: Sketch 55.2 (78181) - https://sketchapp.com -->
    <title>logo-inrae</title>
    <desc>Created with Sketch.</desc>
    <g id="Symbols" stroke="none" stroke-width="1" fill="none" fill-rule="evenodd">
        <g id="header/headerv3" transform="translate(-178.000000, -61.000000)" fill="#009992">
            <g id="headerv3">
                <g id="header/menu">
                    <g id="Group-5">
                        <g id="Group-11" transform="translate(178.000000, 61.000000)">
                            <g id="logo-inrae">
                                <g id="Combined-Shape">
                                    <path d="M5.08449016,0.811890196 C5.27370777,0.811890196 5.42726736,0.958478431 5.42726736,1.13910588 L5.42726736,27.3273412 C5.42726736,27.5079686 5.27370777,27.6551059 5.08449016,27.6551059 L0.34254715,27.6551059 C0.153904663,27.6551059 -0.000230051813,27.5079686 -0.000230051813,27.3273412 L-0.000230051813,1.13910588 C-0.000230051813,0.958478431 0.153904663,0.811890196 0.34254715,0.811890196 L5.08449016,0.811890196 Z M31.9844487,0.811890196 C32.1730912,0.811890196 32.3266508,0.958478431 32.3266508,1.13910588 L32.3266508,27.3273412 C32.3266508,27.5079686 32.1730912,27.6551059 31.9844487,27.6551059 L27.2235264,27.6551059 C27.1056249,27.6551059 26.9963503,27.5969098 26.9342363,27.5013804 L15.3540031,9.8838902 L15.3540031,27.3273412 C15.3540031,27.5079686 15.2010187,27.6551059 15.0112259,27.6551059 L10.2508788,27.6551059 C10.0622363,27.6551059 9.90867668,27.5079686 9.90867668,27.3273412 L9.90867668,1.13910588 C9.90867668,0.958478431 10.0622363,0.811890196 10.2508788,0.811890196 L15.0112259,0.811890196 C15.1297026,0.811890196 15.2389772,0.869537255 15.3022415,0.965615686 L26.9187078,18.6533804 L26.9187078,1.13910588 C26.9187078,0.958478431 27.0716922,0.811890196 27.261485,0.811890196 L31.9844487,0.811890196 Z M51.9103865,16.3452471 L57.8877078,26.9380314 C57.9141637,26.9857961 57.9291171,27.0396 57.9291171,27.0934039 L57.9291171,27.3267373 C57.9291171,27.5079137 57.7755575,27.654502 57.5863399,27.654502 L52.4866663,27.654502 C52.3589876,27.654502 52.2422363,27.5875216 52.1829979,27.4788157 L46.7848321,17.5821882 L42.0285109,17.5821882 L42.0285109,27.3267373 C42.0285109,27.5079137 41.8749513,27.654502 41.6857337,27.654502 L36.9253865,27.654502 C36.7361689,27.654502 36.5831845,27.5079137 36.5831845,27.3267373 L36.5831845,1.1396 C36.5831845,0.958423529 36.7361689,0.812384314 36.9253865,0.812384314 L46.5593813,0.812384314 C49.7870083,0.812384314 52.3233295,1.52171765 54.097029,2.92116863 C55.8897078,4.33544314 56.7995627,6.40140392 56.7995627,9.05975686 C56.7995627,10.8742667 56.3319824,12.4186588 55.4094746,13.6517569 C54.5565575,14.7909725 53.3809927,15.6963059 51.9103865,16.3452471 Z M50.1131067,12.1820314 C50.9481948,11.4666588 51.3536611,10.5080706 51.3536611,9.25136471 C51.3536611,7.94689412 50.9677492,6.93175686 50.2080031,6.23175686 C49.4419306,5.52736471 48.2634902,5.15897255 46.7048891,5.13591373 L42.0285109,5.13591373 L42.0285109,13.2581098 L46.5783606,13.2581098 C48.0892259,13.2581098 49.2785938,12.8957569 50.1131067,12.1820314 Z M74.9638212,18.5215059 L71.002329,7.69044706 L67.6458731,16.8903686 L67.014956,18.6214275 L75.0006295,18.6214275 L74.9638212,18.5215059 Z M96.0975311,5.13366275 C90.8316451,5.13915294 86.5492306,9.23044706 86.5492306,14.2589176 C86.5492306,15.0917804 86.6688575,15.9169569 86.9040855,16.7179765 C92.301101,14.5603294 96.7773342,10.6902902 99.5724637,5.76503529 C98.4618886,5.34613333 97.2943756,5.13421176 96.0975311,5.13366275 Z M110.470018,14.2589176 C110.470018,21.8183686 104.027417,27.9684863 96.1090337,27.9684863 C96.1032824,27.9684863 96.0981062,27.9679373 96.0929301,27.9679373 L96.0929301,27.9684863 C93.1298627,27.9684863 90.2818212,27.1054275 87.8559249,25.4720941 C86.5383031,24.5854275 85.3937953,23.5022118 84.4523083,22.2537412 C84.4310285,22.2257412 84.4097487,22.1966431 84.389044,22.1686431 C84.3671891,22.1735843 84.3453342,22.1774275 84.3234793,22.1823686 C83.5671839,22.361349 82.7965104,22.5150745 82.0246865,22.6375059 L83.8351943,27.2113882 C83.8754534,27.3113098 83.8610751,27.4249569 83.7966606,27.513349 C83.7333964,27.6022902 83.6275725,27.6549961 83.5154223,27.6549961 L78.5474534,27.6549961 C78.4025207,27.6549961 78.2725415,27.5666039 78.2242306,27.4348392 L76.6104171,23.0234667 L76.5580803,22.8807216 L65.460956,22.8807216 L63.7988316,27.4348392 C63.7510959,27.5666039 63.6205415,27.6549961 63.4756088,27.6549961 L58.5266192,27.6549961 C58.4138938,27.6549961 58.3092202,27.6022902 58.2448057,27.513349 C58.1809663,27.4249569 58.166013,27.3113098 58.2068472,27.2113882 L68.5551528,1.02315294 C68.6063394,0.895780392 68.733443,0.811780392 68.8760751,0.811780392 L73.1475622,0.811780392 C73.2896192,0.811780392 73.4172979,0.895780392 73.4673342,1.02315294 L80.3464585,18.3990745 C81.0049819,18.3178196 81.6658057,18.2107608 82.3180026,18.0806431 C81.9389922,16.8398588 81.7474741,15.5568 81.7474741,14.2589176 C81.7474741,11.3957804 82.6740078,8.73742745 84.2521632,6.53585882 C86.8385207,2.92495686 91.1790233,0.54934902 96.0929301,0.54934902 C96.0952306,0.54934902 96.0981062,0.549898039 96.1004067,0.549898039 C96.1032824,0.549898039 96.106158,0.54934902 96.1090337,0.54934902 C98.0903549,0.54934902 100.013013,0.931466667 101.823521,1.68581961 C103.092256,2.21452549 104.277023,2.91672157 105.343313,3.7742902 C105.454313,3.86323137 105.494573,4.00927059 105.443961,4.1382902 C104.937272,5.44550588 104.324759,6.72856471 103.623676,7.95232941 C100.419054,13.5468392 95.3188057,18.0180549 89.2258834,20.5847216 C89.2649922,20.624251 89.304101,20.6621333 89.343785,20.7000157 C90.4647124,21.772251 91.8565259,22.5683294 93.3696917,23.0004078 C94.2594171,23.255702 95.1807746,23.3847216 96.1090337,23.3847216 C101.063199,23.3847216 105.147769,19.7672314 105.620526,15.1532706 C105.631453,15.1000157 105.634904,15.0401725 105.63893,14.9660549 C105.688391,13.8993098 105.874158,13.6028392 106.130666,13.176251 L108.986759,8.89609412 C109.035645,8.84283922 109.171951,8.72974118 109.309407,8.9235451 C110.059376,10.6073882 110.470018,12.4186039 110.470018,14.2589176 Z"></path>
                                </g>
                            </g>
                        </g>
                    </g>
                </g>
            </g>
        </g>
    </g>
</svg>