<?xml version="1.0" encoding="UTF-8" standalone="no"?>
<svg
   xmlns:dc="http://purl.org/dc/elements/1.1/"
   xmlns:cc="http://creativecommons.org/ns#"
   xmlns:rdf="http://www.w3.org/1999/02/22-rdf-syntax-ns#"
   xmlns:svg="http://www.w3.org/2000/svg"
   xmlns="http://www.w3.org/2000/svg"
   viewBox="0 0 772 237.01334"
   height="237.01334"
   width="772"
   xml:space="preserve"
   id="svg2"
   version="1.1"><metadata
     id="metadata8"><rdf:RDF><cc:Work
         rdf:about=""><dc:format>image/svg+xml</dc:format><dc:type
           rdf:resource="http://purl.org/dc/dcmitype/StillImage" /></cc:Work></rdf:RDF></metadata><defs
     id="defs6" /><g
     transform="matrix(1.3333333,0,0,-1.3333333,0,237.01333)"
     id="g10"><g
       transform="scale(0.1)"
       id="g12"><path
         id="path14"
         style="fill:#ee2922;fill-opacity:1;fill-rule:nonzero;stroke:none"
         d="M 3703.97,367.461 4004.12,67.1602 4304.36,367.461 4004.12,667.602 3703.97,367.461" /><path
         id="path16"
         style="fill:#1a64b7;fill-opacity:1;fill-rule:nonzero;stroke:none"
         d="m 4076.79,1477.34 300.26,-300.28 300.34,300.28 -300.34,300.3 -300.26,-300.3" /><path
         id="path18"
         style="fill:#1a64b7;fill-opacity:1;fill-rule:nonzero;stroke:none"
         d="m 3706.04,1106.54 300.17,-300.337 300.22,300.337 -300.22,300.07 -300.17,-300.07" /><path
         id="path20"
         style="fill:#1a64b7;fill-opacity:1;fill-rule:nonzero;stroke:none"
         d="M 3335.09,735.492 3635.34,435.301 3935.57,735.492 3635.34,1035.83 3335.09,735.492" /><path
         id="path22"
         style="fill:#1a64b7;fill-opacity:1;fill-rule:nonzero;stroke:none"
         d="m 2964.24,364.73 h 600.38 L 3264.48,664.922 2964.24,364.73" /><path
         id="path24"
         style="fill:#1a64b7;fill-opacity:1;fill-rule:nonzero;stroke:none"
         d="m 4447.75,1106.54 300.16,-300.337 300.24,300.337 -300.24,300.07 -300.16,-300.07" /><path
         id="path26"
         style="fill:#1a64b7;fill-opacity:1;fill-rule:nonzero;stroke:none"
         d="M 4818.63,735.492 5118.85,435.301 5419.1,735.492 5118.85,1035.83 4818.63,735.492" /><path
         id="path28"
         style="fill:#1a64b7;fill-opacity:1;fill-rule:nonzero;stroke:none"
         d="m 4447.75,364.73 h 600.4 L 4747.91,664.922 4447.75,364.73" /><path
         id="path30"
         style="fill:#1a64b7;fill-opacity:1;fill-rule:nonzero;stroke:none"
         d="m 5189.47,364.73 h 600.49 L 5489.72,664.922 5189.47,364.73" /><path
         id="path32"
         style="fill:#1a64b7;fill-opacity:1;fill-rule:nonzero;stroke:none"
         d="M 4060.7,735.262 4360.85,434.961 4661.12,735.262 4360.85,1035.36 4060.7,735.262" /><path
         id="path34"
         style="fill:#ee2922;fill-opacity:1;fill-rule:nonzero;stroke:none"
         d="m 114.016,208.75 c -7.657,0 -14.0629,-1.738 -19.2387,-5.238 -5.1757,-3.5 -9.3945,-8 -12.6562,-13.524 -3.2617,-5.519 -5.5781,-11.609 -6.9258,-18.246 -1.3476,-6.652 -2.0195,-13.242 -2.0195,-19.773 0,-6.309 0.6719,-12.739 2.0195,-19.27 1.3477,-6.527 3.5469,-12.449 6.582,-17.75 3.0391,-5.289 7.1407,-9.617 12.3165,-13 5.1757,-3.3787 11.4722,-5.0701 18.9062,-5.0701 11.465,0 20.293,3.2031 26.484,9.6211 6.192,6.398 10.067,15.02 11.649,25.82 h 46.242 C 194.219,109.129 185.215,91.5 170.371,79.3984 155.52,67.3008 136.504,61.25 113.332,61.25 c -13.047,0 -25.039,2.1992 -35.9687,6.5898 -10.9258,4.3907 -20.2344,10.5196 -27.9102,18.3985 -7.6836,7.8828 -13.6718,17.2927 -17.9687,28.2107 -4.2969,10.91 -6.4336,22.91 -6.4336,35.973 0,13.519 1.9726,26.066 5.9258,37.668 3.957,11.59 9.7773,21.609 17.4609,30.058 7.6758,8.442 17.043,15.032 28.0859,19.75 11.0352,4.731 23.6446,7.102 37.8246,7.102 10.351,0 20.3,-1.352 29.863,-4.059 9.559,-2.703 18.113,-6.82 25.652,-12.332 7.539,-5.527 13.672,-12.398 18.399,-20.617 4.726,-8.222 7.422,-17.972 8.097,-29.242 h -46.914 c -3.144,20 -14.961,30 -35.429,30" /><path
         id="path36"
         style="fill:#ee2922;fill-opacity:1;fill-rule:nonzero;stroke:none"
         d="m 369.387,146.961 c -3.039,-1.02 -6.301,-1.859 -9.785,-2.531 -3.489,-0.68 -7.141,-1.231 -10.957,-1.68 -3.829,-0.449 -7.649,-1.02 -11.465,-1.691 -3.606,-0.688 -7.149,-1.579 -10.625,-2.707 -3.489,-1.122 -6.524,-2.633 -9.114,-4.551 -2.586,-1.91 -4.668,-4.332 -6.238,-7.25 -1.574,-2.93 -2.355,-6.641 -2.355,-11.153 0,-4.269 0.781,-7.867 2.355,-10.796 1.57,-2.93 3.711,-5.2309 6.406,-6.9106 2.696,-1.6914 5.848,-2.8711 9.442,-3.5508 3.594,-0.6797 7.316,-1.0117 11.144,-1.0117 9.434,0 16.739,1.5703 21.914,4.7227 5.176,3.1484 8.993,6.9184 11.465,11.3084 2.469,4.391 3.985,8.832 4.551,13.328 0.566,4.5 0.848,8.102 0.848,10.801 v 17.891 c -2.032,-1.801 -4.559,-3.211 -7.586,-4.219 z m -94.59,67.801 c 4.949,7.386 11.258,13.328 18.914,17.808 7.656,4.469 16.262,7.668 25.832,9.571 9.57,1.91 19.199,2.859 28.887,2.859 8.777,0 17.675,-0.621 26.679,-1.852 9.004,-1.238 17.227,-3.66 24.657,-7.269 7.422,-3.598 13.507,-8.609 18.234,-15.027 4.727,-6.422 7.098,-14.922 7.098,-25.5 V 104.5 c 0,-7.8906 0.449,-15.418 1.347,-22.6289 0.899,-7.2109 2.481,-12.6211 4.727,-16.2109 l -48.926,-0.0313 c -0.906,2.7109 -1.641,5.5 -2.207,8.332 -0.566,2.8282 -0.965,5.711 -1.191,8.6602 -7.657,-7.9219 -16.649,-13.4609 -27,-16.6211 -10.352,-3.1602 -20.93,-4.75 -31.719,-4.75 -8.332,0 -16.094,1.0195 -23.293,3.0391 -7.207,2.0312 -13.504,5.1914 -18.906,9.4726 -5.399,4.2891 -9.617,9.6992 -12.657,16.2383 -3.035,6.5508 -4.55,14.32 -4.55,23.34 0,9.922 1.738,18.101 5.234,24.519 3.496,6.43 8,11.563 13.516,15.403 5.519,3.82 11.828,6.699 18.925,8.617 7.09,1.91 14.25,3.441 21.457,4.57 7.208,1.121 14.305,2.02 21.297,2.699 6.985,0.684 13.176,1.692 18.586,3.051 5.41,1.352 9.688,3.321 12.84,5.922 3.145,2.59 4.61,6.367 4.395,11.328 0,5.18 -0.84,9.289 -2.52,12.34 -1.68,3.051 -3.926,5.41 -6.719,7.109 -2.8,1.692 -6.054,2.813 -9.746,3.383 -3.699,0.559 -7.675,0.848 -11.933,0.848 -9.414,0 -16.805,-2.02 -22.176,-6.07 -5.371,-4.039 -8.508,-10.77 -9.406,-20.18 h -48.125 c 0.675,11.191 3.488,20.492 8.449,27.883" /><path
         id="path38"
         style="fill:#ee2922;fill-opacity:1;fill-rule:nonzero;stroke:none"
         d="M 552.023,239.891 V 216.25 h 0.672 c 6.328,8.93 13.946,15.84 22.871,20.762 8.926,4.91 19.153,7.367 30.676,7.367 11.063,0 21.172,-2.129 30.321,-6.367 9.14,-4.242 16.093,-11.723 20.839,-22.43 5.176,7.59 12.207,14.289 21.106,20.09 8.887,5.797 19.414,8.707 31.57,8.707 9.231,0 17.785,-1.117 25.664,-3.367 7.871,-2.25 14.629,-5.832 20.254,-10.774 5.625,-4.937 10.02,-11.386 13.176,-19.359 3.144,-7.969 4.726,-17.57 4.726,-28.777 V 65.6289 h -48.125 v 98.7691 c 0,5.84 -0.226,11.352 -0.675,16.524 -0.45,5.168 -1.688,9.66 -3.7,13.488 -2.023,3.82 -4.992,6.852 -8.918,9.102 -3.925,2.25 -9.257,3.367 -15.984,3.367 -6.738,0 -12.18,-1.297 -16.328,-3.879 -4.152,-2.59 -7.402,-5.961 -9.758,-10.121 -2.363,-4.16 -3.933,-8.867 -4.715,-14.16 -0.781,-5.278 -1.172,-10.61 -1.172,-16 V 65.6289 h -48.125 v 97.7621 c 0,5.168 -0.117,10.281 -0.343,15.328 -0.223,5.062 -1.18,9.722 -2.86,14 -1.679,4.269 -4.484,7.691 -8.41,10.281 -3.926,2.582 -9.707,3.879 -17.332,3.879 -2.246,0 -5.215,-0.508 -8.918,-1.527 -3.711,-1.012 -7.293,-2.922 -10.769,-5.731 -3.477,-2.812 -6.457,-6.851 -8.918,-12.133 -2.469,-5.277 -3.7,-12.187 -3.7,-20.726 V 65.6289 H 507.023 V 239.891 h 45" /><path
         id="path40"
         style="fill:#ee2922;fill-opacity:1;fill-rule:nonzero;stroke:none"
         d="m 963.02,101.602 c 5.273,3.16 9.531,7.269 12.781,12.347 3.254,5.071 5.558,10.981 6.906,17.742 1.348,6.758 2.02,13.629 2.02,20.618 0,6.98 -0.731,13.863 -2.188,20.613 -1.465,6.758 -3.875,12.797 -7.234,18.09 -3.371,5.289 -7.688,9.57 -12.961,12.84 -5.274,3.257 -11.727,4.898 -19.344,4.898 -7.852,0 -14.414,-1.641 -19.687,-4.898 -5.274,-3.27 -9.543,-7.5 -12.793,-12.672 -3.254,-5.188 -5.547,-11.16 -6.895,-17.918 -1.348,-6.75 -2.023,-13.75 -2.023,-20.953 0,-6.989 0.722,-13.86 2.187,-20.618 1.457,-6.761 3.809,-12.671 7.063,-17.742 3.25,-5.078 7.566,-9.187 12.957,-12.347 5.39,-3.1528 11.894,-4.7231 19.523,-4.7231 7.852,0 14.414,1.5703 19.688,4.7231 z m -62.043,138.578 0.128,-22.282 h 0.497 c 5.839,9.493 13.261,16.372 22.265,20.672 8.996,4.282 18.899,6.43 29.699,6.43 13.711,0 25.516,-2.59 35.418,-7.77 9.903,-5.179 18.116,-12.05 24.646,-20.609 6.52,-8.551 11.36,-18.519 14.5,-29.891 3.14,-11.371 4.73,-23.25 4.73,-35.628 0,-11.711 -1.58,-22.973 -4.72,-33.782 -3.14,-10.808 -7.92,-20.3786 -14.32,-28.7106 -6.4,-8.3281 -14.375,-14.9688 -23.925,-19.9297 -9.551,-4.9492 -20.723,-7.4297 -33.516,-7.4297 -10.781,0 -20.723,2.1914 -29.824,6.5586 -9.102,4.3633 -16.563,10.8125 -22.403,19.3203 h -0.675 V 4.37891 H 855.352 V 240.18 h 45.625" /><path
         id="path42"
         style="fill:#ee2922;fill-opacity:1;fill-rule:nonzero;stroke:none"
         d="m 1223.52,65.6797 v 24.2891 h -1.02 c -6.07,-10.129 -13.96,-17.4571 -23.62,-21.9571 -9.68,-4.5 -19.58,-6.7617 -29.7,-6.7617 -12.83,0 -23.35,1.6914 -31.56,5.0586 -8.22,3.3711 -14.68,8.1523 -19.41,14.3398 -4.72,6.1836 -8.03,13.711 -9.95,22.6016 -1.91,8.871 -2.87,18.711 -2.87,29.512 V 240 h 48.13 v -98.43 c 0,-14.39 2.23,-25.121 6.71,-32.199 4.48,-7.082 12.43,-10.621 23.84,-10.621 12.99,0 22.39,3.879 28.22,11.629 5.82,7.762 8.73,20.512 8.73,38.269 V 240 h 48.12 V 65.6797 h -45.62" /><path
         id="path44"
         style="fill:#ee2922;fill-opacity:1;fill-rule:nonzero;stroke:none"
         d="m 1390.05,109.16 c 2.13,-3.711 4.89,-6.738 8.27,-9.109 3.36,-2.3596 7.24,-4.1096 11.63,-5.2307 4.38,-1.1406 8.93,-1.6914 13.66,-1.6914 3.37,0 6.91,0.3906 10.62,1.1797 3.71,0.7812 7.08,2.0234 10.12,3.7109 3.03,1.6797 5.56,3.9415 7.59,6.7505 2.02,2.812 3.04,6.359 3.04,10.628 0,7.204 -4.8,12.602 -14.39,16.204 -9.59,3.597 -22.96,7.199 -40.11,10.808 -6.99,1.57 -13.81,3.422 -20.48,5.559 -6.66,2.133 -12.57,4.941 -17.77,8.441 -5.19,3.488 -9.36,7.871 -12.52,13.16 -3.16,5.289 -4.73,11.75 -4.73,19.41 0,11.25 2.19,20.469 6.59,27.668 4.39,7.204 10.19,12.883 17.4,17.043 7.21,4.161 15.32,7.09 24.34,8.778 9.01,1.679 18.25,2.531 27.72,2.531 9.46,0 18.64,-0.898 27.55,-2.691 8.9,-1.797 16.84,-4.84 23.83,-9.098 6.98,-4.281 12.78,-9.949 17.41,-17.031 4.62,-7.078 7.38,-16.02 8.28,-26.801 h -45.62 c -0.69,9.269 -4.17,15.543 -10.46,18.832 -6.3,3.277 -13.72,4.918 -22.27,4.918 -2.69,0 -5.62,-0.18 -8.77,-0.508 -3.15,-0.34 -6.02,-1.07 -8.6,-2.199 -2.59,-1.133 -4.79,-2.762 -6.58,-4.902 -1.8,-2.149 -2.7,-5.02 -2.7,-8.629 0,-4.289 1.56,-7.789 4.71,-10.493 3.14,-2.707 7.23,-4.898 12.28,-6.589 5.05,-1.7 10.83,-3.219 17.34,-4.571 6.5,-1.347 13.11,-2.816 19.85,-4.398 6.95,-1.578 13.74,-3.488 20.36,-5.75 6.62,-2.25 12.51,-5.238 17.67,-8.961 5.15,-3.719 9.3,-8.34 12.45,-13.867 3.14,-5.532 4.72,-12.34 4.72,-20.461 0,-11.5 -2.31,-21.141 -6.91,-28.9221 -4.6,-7.7773 -10.6,-14.0391 -18.01,-18.7773 -7.4,-4.7305 -15.88,-8.0625 -25.42,-9.9805 -9.54,-1.9023 -19.24,-2.8711 -29.11,-2.8711 -10.11,0 -19.98,1.0195 -29.63,3.0508 -9.64,2.0312 -18.23,5.4101 -25.75,10.1484 -7.52,4.7305 -13.69,10.9922 -18.51,18.7813 -4.83,7.7815 -7.46,17.5315 -7.91,29.2695 h 45.62 c 0,-5.168 1.07,-9.629 3.2,-13.34" /><path
         id="path46"
         style="fill:#ee2922;fill-opacity:1;fill-rule:nonzero;stroke:none"
         d="M 1556.35,208.129 V 240 h 28.69 v 13.582 c 0,15.609 4.85,28.398 14.57,38.359 9.72,9.957 24.38,14.938 44.01,14.938 4.28,0 8.55,-0.16 12.83,-0.469 4.27,-0.308 8.43,-0.578 12.49,-0.781 v -36.25 c -5.63,0.832 -11.48,1.25 -17.55,1.25 -6.53,0 -11.19,-1.527 -14.01,-4.598 -2.81,-3.07 -4.22,-8.222 -4.22,-15.48 V 240 h 33.08 v -31.871 h -33.08 V 65.6289 h -48.12 V 208.129 h -28.69" /><path
         id="path48"
         style="fill:#ee2922;fill-opacity:1;fill-rule:nonzero;stroke:none"
         d="M 1776.27,240.422 V 208.02 h 0.71 c 2.32,5.371 5.38,10.359 9.21,14.96 3.83,4.59 8.21,8.52 13.17,11.77 4.94,3.242 10.23,5.762 15.86,7.559 5.62,1.793 11.47,2.691 17.54,2.691 3.15,0 6.64,-0.559 10.47,-1.68 v -44.371 c -2.25,0.449 -4.96,0.84 -8.1,1.172 -3.16,0.328 -6.19,0.508 -9.11,0.508 -8.78,0 -16.21,-1.481 -22.28,-4.41 -6.07,-2.93 -10.97,-6.93 -14.68,-12.008 -3.71,-5.082 -6.35,-10.992 -7.93,-17.762 -1.58,-6.769 -2.36,-14.09 -2.36,-21.98 V 65.6289 h -48.13 V 240.422 h 45.63" /><path
         id="path50"
         style="fill:#ee2922;fill-opacity:1;fill-rule:nonzero;stroke:none"
         d="m 2006.93,146.961 c -3.03,-1.02 -6.3,-1.859 -9.78,-2.531 -3.49,-0.68 -7.14,-1.231 -10.96,-1.68 -3.83,-0.449 -7.65,-1.02 -11.46,-1.691 -3.61,-0.688 -7.15,-1.579 -10.63,-2.707 -3.48,-1.122 -6.52,-2.633 -9.11,-4.551 -2.59,-1.91 -4.67,-4.332 -6.24,-7.25 -1.57,-2.93 -2.35,-6.641 -2.35,-11.153 0,-4.269 0.78,-7.867 2.35,-10.796 1.57,-2.93 3.71,-5.2309 6.41,-6.9106 2.69,-1.6914 5.85,-2.8711 9.44,-3.5508 3.59,-0.6797 7.31,-1.0117 11.14,-1.0117 9.44,0 16.74,1.5703 21.92,4.7227 5.17,3.1484 8.99,6.9184 11.46,11.3084 2.47,4.391 3.99,8.832 4.55,13.328 0.57,4.5 0.85,8.102 0.85,10.801 v 17.891 c -2.03,-1.801 -4.56,-3.211 -7.59,-4.219 z m -94.59,67.801 c 4.96,7.386 11.26,13.328 18.92,17.808 7.66,4.469 16.26,7.668 25.83,9.571 9.57,1.91 19.2,2.859 28.89,2.859 8.78,0 17.67,-0.621 26.68,-1.852 9,-1.238 17.22,-3.66 24.65,-7.269 7.43,-3.598 13.51,-8.609 18.24,-15.027 4.72,-6.422 7.1,-14.922 7.1,-25.5 V 104.5 c 0,-7.8906 0.45,-15.418 1.34,-22.6289 0.9,-7.2109 2.48,-12.6211 4.73,-16.2109 l -48.92,-0.0313 c -0.91,2.7109 -1.65,5.5 -2.21,8.332 -0.57,2.8282 -0.97,5.711 -1.19,8.6602 -7.66,-7.9219 -16.65,-13.4609 -27.01,-16.6211 -10.35,-3.1602 -20.92,-4.75 -31.71,-4.75 -8.33,0 -16.1,1.0195 -23.3,3.0391 -7.2,2.0312 -13.5,5.1914 -18.9,9.4726 -5.4,4.2891 -9.62,9.6992 -12.66,16.2383 -3.03,6.5508 -4.55,14.32 -4.55,23.34 0,9.922 1.74,18.101 5.24,24.519 3.49,6.43 7.99,11.563 13.51,15.403 5.52,3.82 11.83,6.699 18.93,8.617 7.09,1.91 14.25,3.441 21.45,4.57 7.21,1.121 14.31,2.02 21.3,2.699 6.98,0.684 13.18,1.692 18.59,3.051 5.41,1.352 9.68,3.321 12.84,5.922 3.14,2.59 4.61,6.367 4.39,11.328 0,5.18 -0.84,9.289 -2.52,12.34 -1.68,3.051 -3.92,5.41 -6.72,7.109 -2.8,1.692 -6.05,2.813 -9.74,3.383 -3.7,0.559 -7.68,0.848 -11.94,0.848 -9.41,0 -16.8,-2.02 -22.17,-6.07 -5.38,-4.039 -8.51,-10.77 -9.41,-20.18 h -48.12 c 0.67,11.191 3.48,20.492 8.44,27.883" /><path
         id="path52"
         style="fill:#ee2922;fill-opacity:1;fill-rule:nonzero;stroke:none"
         d="m 2188.95,239.891 v -24.309 h 1.01 c 6.08,10.039 13.95,17.348 23.62,21.93 9.67,4.57 19.57,6.867 29.7,6.867 12.82,0 23.34,-1.75 31.55,-5.231 8.22,-3.468 14.68,-8.296 19.41,-14.468 4.72,-6.168 8.05,-13.68 9.96,-22.551 1.91,-8.867 2.87,-18.688 2.87,-29.449 V 65.6289 h -48.12 V 164.07 c 0,14.371 -2.25,25.102 -6.72,32.18 -4.49,7.082 -12.43,10.629 -23.84,10.629 -12.99,0 -22.39,-3.879 -28.21,-11.629 -5.82,-7.762 -8.73,-20.508 -8.73,-38.262 V 65.6289 h -48.13 V 239.891 h 45.63" /><path
         id="path54"
         style="fill:#ee2922;fill-opacity:1;fill-rule:nonzero;stroke:none"
         d="m 2470.62,208.75 c -7.66,0 -14.06,-1.738 -19.24,-5.238 -5.17,-3.5 -9.39,-8 -12.65,-13.524 -3.27,-5.519 -5.58,-11.609 -6.93,-18.246 -1.35,-6.652 -2.02,-13.242 -2.02,-19.773 0,-6.309 0.67,-12.739 2.02,-19.27 1.35,-6.527 3.55,-12.449 6.58,-17.75 3.04,-5.289 7.14,-9.617 12.32,-13 5.17,-3.3787 11.47,-5.0701 18.9,-5.0701 11.47,0 20.3,3.2031 26.49,9.6211 6.19,6.398 10.07,15.02 11.65,25.82 h 46.24 c -3.15,-23.191 -12.16,-40.82 -27,-52.9216 -14.86,-12.0976 -33.87,-18.1484 -57.04,-18.1484 -13.05,0 -25.04,2.1992 -35.97,6.5898 -10.93,4.3907 -20.23,10.5196 -27.91,18.3985 -7.69,7.8828 -13.67,17.2927 -17.97,28.2107 -4.3,10.91 -6.43,22.91 -6.43,35.973 0,13.519 1.97,26.066 5.92,37.668 3.96,11.59 9.78,21.609 17.46,30.058 7.68,8.442 17.04,15.032 28.09,19.75 11.04,4.731 23.64,7.102 37.82,7.102 10.35,0 20.31,-1.352 29.87,-4.059 9.56,-2.703 18.11,-6.82 25.65,-12.332 7.54,-5.527 13.67,-12.398 18.4,-20.617 4.72,-8.222 7.42,-17.972 8.09,-29.242 h -46.91 c -3.14,20 -14.96,30 -35.43,30" /><path
         id="path56"
         style="fill:#ee2922;fill-opacity:1;fill-rule:nonzero;stroke:none"
         d="m 2730.81,199.371 c -5.75,6.25 -14.46,9.379 -26.16,9.379 -7.65,0 -14.01,-1.289 -19.07,-3.852 -5.06,-2.578 -9.11,-5.769 -12.15,-9.558 -3.04,-3.801 -5.18,-7.828 -6.41,-12.07 -1.24,-4.239 -1.98,-8.04 -2.19,-11.391 h 77.96 c -2.25,12.07 -6.24,21.23 -11.98,27.492 z m -54.17,-91.992 c 7.19,-7.008 17.54,-10.5001 31.05,-10.5001 9.67,0 18,2.4024 24.97,7.2231 6.97,4.808 11.25,9.91 12.83,15.277 h 42.19 C 2780.92,98.5391 2770.57,83.6484 2756.63,74.6914 2742.67,65.7305 2725.8,61.25 2706,61.25 c -13.73,0 -26.11,2.1992 -37.15,6.5898 -11.04,4.3907 -20.41,10.6407 -28.08,18.75 -7.69,8.1016 -13.62,17.7812 -17.8,29.0392 -4.18,11.262 -6.27,23.641 -6.27,37.16 0,13.063 2.14,25.223 6.44,36.481 4.3,11.25 10.39,20.992 18.3,29.21 7.91,8.219 17.32,14.7 28.25,19.418 10.93,4.731 23.03,7.102 36.31,7.102 14.84,0 27.78,-2.879 38.81,-8.621 11.03,-5.738 20.08,-13.457 27.17,-23.141 7.09,-9.687 12.2,-20.738 15.36,-33.129 3.14,-12.39 4.28,-25.339 3.38,-38.859 h -125.89 c 0.66,-15.578 4.6,-26.871 11.81,-33.871" /><path
         id="path58"
         style="fill:#ee2922;fill-opacity:1;fill-rule:nonzero;stroke:none"
         d="m 2864.25,65.6289 h 53.1289 V 117.5 H 2864.25 Z" /><path
         id="path60"
         style="fill:#ee2922;fill-opacity:1;fill-rule:nonzero;stroke:none"
         d="m 3045.18,132.199 c 1.33,-6.648 3.61,-12.629 6.84,-17.918 3.22,-5.293 7.51,-9.519 12.85,-12.679 5.33,-3.1528 12.01,-4.7231 20.02,-4.7231 8.01,0 14.73,1.5703 20.18,4.7231 5.45,3.16 9.79,7.386 13.01,12.679 3.22,5.289 5.51,11.27 6.85,17.918 1.33,6.641 2,13.461 2,20.449 0,6.981 -0.67,13.864 -2,20.614 -1.34,6.758 -3.63,12.73 -6.85,17.918 -3.22,5.172 -7.56,9.402 -13.01,12.672 -5.45,3.257 -12.17,4.898 -20.18,4.898 -8.01,0 -14.69,-1.641 -20.02,-4.898 -5.34,-3.27 -9.63,-7.5 -12.85,-12.672 -3.23,-5.188 -5.51,-11.16 -6.84,-17.918 -1.34,-6.75 -2,-13.633 -2,-20.614 0,-6.988 0.66,-13.808 2,-20.449 z m -43.74,58.582 c 4.26,11.367 10.32,21.059 18.17,29.059 7.86,7.992 17.27,14.18 28.27,18.57 10.98,4.399 23.32,6.59 37.01,6.59 13.67,0 26.06,-2.191 37.17,-6.59 11.1,-4.39 20.58,-10.578 28.43,-18.57 7.85,-8 13.91,-17.692 18.17,-29.059 4.26,-11.359 6.39,-24.031 6.39,-37.992 0,-13.969 -2.13,-26.578 -6.39,-37.84 -4.26,-11.258 -10.32,-20.8787 -18.17,-28.867 -7.85,-8 -17.33,-14.1328 -28.43,-18.4101 -11.11,-4.2813 -23.5,-6.4219 -37.17,-6.4219 -13.69,0 -26.03,2.1406 -37.01,6.4219 -11,4.2773 -20.41,10.4101 -28.27,18.4101 -7.85,7.9883 -13.91,17.609 -18.17,28.867 -4.26,11.262 -6.39,23.871 -6.39,37.84 0,13.961 2.13,26.633 6.39,37.992" /><path
         id="path62"
         style="fill:#ee2922;fill-opacity:1;fill-rule:nonzero;stroke:none"
         d="M 3295.71,240.422 V 208.02 h 0.71 c 2.32,5.371 5.38,10.359 9.21,14.96 3.83,4.59 8.21,8.52 13.16,11.77 4.95,3.242 10.24,5.762 15.86,7.559 5.63,1.793 11.48,2.691 17.55,2.691 3.15,0 6.64,-0.559 10.47,-1.68 v -44.371 c -2.25,0.449 -4.96,0.84 -8.1,1.172 -3.16,0.328 -6.2,0.508 -9.12,0.508 -8.77,0 -16.2,-1.481 -22.27,-4.41 -6.08,-2.93 -10.97,-6.93 -14.68,-12.008 -3.71,-5.082 -6.36,-10.992 -7.93,-17.762 -1.58,-6.769 -2.36,-14.09 -2.36,-21.98 V 65.6289 h -48.13 V 240.422 h 45.63" /><path
         id="path64"
         style="fill:#ee2922;fill-opacity:1;fill-rule:nonzero;stroke:none"
         d="m 3515.4,110.922 c 5.15,2.699 9.41,6.297 12.77,10.797 3.36,4.492 5.89,9.613 7.57,15.34 1.68,5.742 2.53,11.75 2.53,18.062 0,7.188 -0.68,13.988 -2.02,20.399 -1.35,6.41 -3.59,12.089 -6.73,17.039 -3.15,4.941 -7.29,8.882 -12.44,11.812 -5.16,2.918 -11.66,4.379 -19.51,4.379 -6.73,0 -12.51,-1.352 -17.32,-4.051 -4.83,-2.687 -8.86,-6.347 -12.11,-10.961 -3.25,-4.609 -5.61,-9.898 -7.06,-15.859 -1.47,-5.949 -2.19,-12.188 -2.19,-18.719 0,-6.301 0.62,-12.539 1.85,-18.719 1.23,-6.191 3.37,-11.761 6.39,-16.703 3.03,-4.949 7.01,-8.996 11.94,-12.136 4.93,-3.153 11.1,-4.723 18.5,-4.723 6.72,0 12.67,1.351 17.83,4.043 z m 65.62,-57.9728 C 3579.11,43.9688 3575,35.5898 3568.69,27.832 3562.38,20.082 3553.25,13.5 3541.31,8.10156 3529.38,2.71094 3513.39,0 3493.37,0 c -8.55,0 -17.26,1.08203 -26.15,3.21875 -8.88,2.15234 -16.99,5.48047 -24.3,10.00005 -7.31,4.5195 -13.38,10.3398 -18.23,17.4531 -4.84,7.1172 -7.59,15.6367 -8.26,25.5781 h 47.59 c 2.24,-9.1484 6.63,-15.4883 13.15,-19.0508 6.53,-3.539 14.07,-5.3203 22.62,-5.3203 13.5,0 23.34,4.0508 29.53,12.1602 6.19,8.1015 9.17,18.3515 8.95,30.7304 v 22.961 h -0.63 c -5.17,-9.2617 -12.55,-16.1016 -22.11,-20.5 -9.56,-4.3985 -19.63,-6.6016 -30.19,-6.6016 -13.05,0 -24.3,2.3008 -33.74,6.9219 -9.46,4.6211 -17.21,10.9297 -23.28,18.9297 -6.08,7.9995 -10.52,17.3395 -13.33,28.0395 -2.82,10.71 -4.22,22.031 -4.22,33.972 0,11.258 1.63,22.129 4.89,32.61 3.26,10.48 8.04,19.707 14.34,27.707 6.29,8 14.12,14.371 23.45,19.089 9.34,4.731 20.08,7.102 32.23,7.102 11.46,0 21.53,-2.148 30.19,-6.43 8.67,-4.3 15.92,-11.531 21.77,-21.679 h 0.63 v 23.289 h 45.62 V 76.9102 c 0,-6.9805 -0.96,-14.9493 -2.87,-23.961" /><path
         id="path66"
         style="fill:#4f4c4c;fill-opacity:1;fill-rule:nonzero;stroke:none"
         d="M 340.82,787.527 V 708.77 H 134.688 V 610.648 H 313.34 V 537.52 H 134.688 V 361.27 H 40.9375 V 787.527 H 340.82" /><path
         id="path68"
         style="fill:#4f4c4c;fill-opacity:1;fill-rule:nonzero;stroke:none"
         d="m 675.41,595.02 c 21.535,0 37.688,4.781 48.457,14.332 10.762,9.546 16.153,25.07 16.153,46.57 0,20.687 -5.391,35.707 -16.153,45.066 -10.769,9.352 -26.922,14.032 -48.457,14.032 H 572.52 v -120 z m 33.449,193.132 c 19.121,0 36.356,-3.097 51.7,-9.265 15.332,-6.188 28.484,-14.657 39.441,-25.418 10.957,-10.758 19.316,-23.207 25.098,-37.36 5.781,-14.148 8.672,-29.398 8.672,-45.73 0,-25.109 -5.282,-46.828 -15.829,-65.16 -10.546,-18.34 -27.765,-32.289 -51.652,-41.848 v -1.191 c 11.555,-3.192 21.113,-8.078 28.684,-14.66 7.566,-6.579 13.738,-14.348 18.523,-23.321 4.777,-8.961 8.262,-18.828 10.449,-29.59 2.188,-10.757 3.684,-21.519 4.485,-32.277 0.398,-6.781 0.8,-14.762 1.199,-23.934 0.391,-9.168 1.094,-18.527 2.09,-28.097 0.996,-9.571 2.59,-18.641 4.777,-27.211 2.188,-8.578 5.477,-15.84 9.863,-21.82 H 752.5 c -5.195,13.562 -8.387,29.699 -9.59,48.449 -1.199,18.742 -2.996,36.679 -5.39,53.832 -3.192,22.32 -9.969,38.668 -20.332,49.039 -10.36,10.371 -27.293,15.558 -50.809,15.558 H 572.52 V 361.27 h -93.75 v 426.882 h 230.089" /><path
         id="path70"
         style="fill:#4f4c4c;fill-opacity:1;fill-rule:nonzero;stroke:none"
         d="m 1211.73,526.27 -53.78,156.652 h -1.19 L 1101.19,526.27 Z m -5.38,261.882 159.53,-426.882 h -97.39 l -32.27,95 h -159.53 l -33.46,-95 h -94.406 l 161.336,426.882 h 96.19" /><path
         id="path72"
         style="fill:#4f4c4c;fill-opacity:1;fill-rule:nonzero;stroke:none"
         d="M 1579.65,788.152 1757.7,501.77 h 1.25 v 286.382 h 88.13 V 361.27 h -93.82 l -177.49,285.781 h -1.19 V 361.27 h -88.13 v 426.882 h 93.2" /><path
         id="path74"
         style="fill:#4f4c4c;fill-opacity:1;fill-rule:nonzero;stroke:none"
         d="m 2286.06,674.281 c -5.58,8.969 -12.55,16.828 -20.91,23.598 -8.36,6.781 -17.83,12.051 -28.38,15.84 -10.56,3.781 -21.61,5.679 -33.16,5.679 -21.11,0 -39.04,-4.089 -53.78,-12.257 -14.74,-8.172 -26.69,-19.141 -35.85,-32.891 -9.16,-13.75 -15.84,-29.391 -20.02,-46.93 -4.17,-17.539 -6.26,-35.679 -6.26,-54.41 0,-17.941 2.09,-35.379 6.26,-52.308 4.18,-16.942 10.86,-32.192 20.02,-45.743 9.16,-13.558 21.11,-24.418 35.85,-32.578 14.74,-8.179 32.67,-12.261 53.78,-12.261 28.68,0 51.09,8.761 67.22,26.289 16.13,17.523 25.99,40.632 29.57,69.32 h 90.82 c -2.39,-26.699 -8.56,-50.789 -18.52,-72.297 -9.97,-21.5 -23.11,-39.812 -39.44,-54.922 -16.33,-15.109 -35.45,-26.64 -57.35,-34.59 -21.92,-7.941 -46.01,-11.922 -72.3,-11.922 -32.67,0 -62.05,5.684 -88.13,17.024 -26.1,11.348 -48.1,26.976 -66.01,46.887 -17.91,19.921 -31.65,43.312 -41.2,70.203 -9.55,26.867 -14.32,55.847 -14.32,86.918 0,31.859 4.77,61.429 14.32,88.711 9.55,27.281 23.29,51.078 41.2,71.39 17.91,20.309 39.91,36.239 66.01,47.797 26.08,11.543 55.46,17.324 88.13,17.324 23.5,0 45.7,-3.386 66.61,-10.144 20.92,-6.758 39.64,-16.61 56.18,-29.539 16.52,-12.93 30.16,-28.949 40.92,-48.047 10.76,-19.113 17.52,-41.012 20.32,-65.711 h -90.82 c -1.6,10.75 -5.18,20.609 -10.76,29.57" /><path
         id="path76"
         style="fill:#4f4c4c;fill-opacity:1;fill-rule:nonzero;stroke:none"
         d="M 2857.94,787.527 V 708.77 h -225.25 v -91.25 h 206.72 V 544.398 H 2632.69 V 440.02 h 230.03 v -78.75 h -323.78 v 426.257 h 319" /><path
         id="path78"
         style="fill:#4f4c4c;fill-opacity:1;fill-rule:nonzero;stroke:none"
         d="m 292.121,1221.67 c -5.586,8.96 -12.558,16.83 -20.918,23.6 -8.359,6.78 -17.824,12.05 -28.379,15.84 -10.558,3.78 -21.613,5.68 -33.156,5.68 -21.113,0 -39.043,-4.1 -53.777,-12.26 -14.746,-8.17 -26.692,-19.14 -35.852,-32.89 -9.16,-13.75 -15.84,-29.39 -20.019,-46.93 -4.1802,-17.54 -6.27,-35.68 -6.27,-54.41 0,-17.94 2.0898,-35.38 6.27,-52.32 4.179,-16.94 10.859,-32.18 20.019,-45.73 9.16,-13.56 21.106,-24.418 35.852,-32.582 14.734,-8.176 32.664,-12.258 53.777,-12.258 28.672,0 51.086,8.762 67.219,26.29 16.133,17.52 25.984,40.62 29.57,69.32 h 90.82 c -2.394,-26.7 -8.566,-50.8 -18.527,-72.3 -9.961,-21.501 -23.105,-39.814 -39.434,-54.919 -16.328,-15.11 -35.449,-26.645 -57.351,-34.59 -21.914,-7.941 -46.008,-11.926 -72.297,-11.926 -32.676,0 -62.051,5.684 -88.133,17.02 C 95.4414,927.652 73.4375,943.289 55.5273,963.199 37.6172,983.113 23.8789,1006.51 14.3281,1033.39 4.77734,1060.27 0,1089.25 0,1120.32 c 0,31.86 4.77734,61.43 14.3281,88.71 9.5508,27.27 23.2891,51.08 41.1992,71.39 17.9102,20.31 39.9141,36.24 66.0077,47.79 26.082,11.54 55.457,17.33 88.133,17.33 23.496,0 45.695,-3.4 66.613,-10.15 20.918,-6.76 39.637,-16.6 56.172,-29.53 16.524,-12.93 30.164,-28.95 40.926,-48.05 10.754,-19.11 17.519,-41.01 20.312,-65.71 h -90.82 c -1.59,10.75 -5.176,20.6 -10.75,29.57" /><path
         id="path80"
         style="fill:#4f4c4c;fill-opacity:1;fill-rule:nonzero;stroke:none"
         d="m 739.168,1073.66 -53.781,156.65 h -1.192 l -55.566,-156.65 z m -5.383,261.88 159.531,-426.88 h -97.394 l -32.266,95 H 604.125 l -33.457,-95 h -94.402 l 161.328,426.88 h 96.191" /><path
         id="path82"
         style="fill:#4f4c4c;fill-opacity:1;fill-rule:nonzero;stroke:none"
         d="m 1122.03,1335.54 99.75,-293.56 h 1.19 l 94.39,293.56 h 132.02 V 908.66 h -88.12 v 302.52 h -1.2 l -104.3,-302.52 h -72.13 l -104.31,299.53 h -1.19 V 908.66 H 990 v 426.88 h 132.03" /><path
         id="path84"
         style="fill:#4f4c4c;fill-opacity:1;fill-rule:nonzero;stroke:none"
         d="m 1758.29,1134.91 c 10.77,0 21.14,0.79 31.12,2.38 9.97,1.59 18.75,4.66 26.33,9.23 7.58,4.57 13.67,11.03 18.26,19.37 4.59,8.34 6.88,19.26 6.88,32.77 0,13.5 -2.29,24.43 -6.88,32.77 -4.59,8.34 -10.68,14.79 -18.26,19.36 -7.58,4.57 -16.36,7.64 -26.33,9.24 -9.98,1.58 -20.35,2.38 -31.12,2.38 h -73.03 v -127.5 z m 25.63,200.63 c 26.68,0 49.39,-3.89 68.12,-11.66 18.72,-7.78 33.95,-18.03 45.71,-30.79 11.75,-12.75 20.31,-27.29 25.69,-43.63 5.37,-16.33 8.07,-33.27 8.07,-50.8 0,-17.14 -2.7,-33.98 -8.08,-50.51 -5.38,-16.54 -13.94,-31.18 -25.7,-43.93 -11.76,-12.76 -26.99,-23.01 -45.72,-30.79 -18.73,-7.77 -41.44,-11.64 -68.13,-11.64 h -98.62 V 908.66 h -93.75 v 426.88 h 192.41" /><path
         id="path86"
         style="fill:#4f4c4c;fill-opacity:1;fill-rule:nonzero;stroke:none"
         d="m 2363.15,941.414 c -32.26,-28.086 -76.86,-42.129 -133.8,-42.129 -57.73,0 -102.43,13.938 -134.09,41.824 -31.66,27.895 -47.48,70.921 -47.48,129.091 v 265.34 h 93.75 v -265.46 c 0,-11.56 0.99,-22.92 2.99,-34.08 1.99,-11.16 6.17,-21.02 12.55,-29.6 6.36,-8.568 15.23,-15.545 26.58,-20.923 11.35,-5.379 26.58,-8.067 45.7,-8.067 33.46,0 56.56,7.473 69.31,22.422 12.74,14.938 19.12,38.358 19.12,70.248 v 265.46 h 93.75 V 1070.2 c 0,-57.77 -16.13,-100.7 -48.38,-128.786" /><path
         id="path88"
         style="fill:#4f4c4c;fill-opacity:1;fill-rule:nonzero;stroke:none"
         d="m 2623.52,1014.21 c 5.17,-9.96 12.05,-18.03 20.62,-24.202 8.57,-6.172 18.62,-10.75 30.18,-13.742 11.55,-2.989 23.5,-4.481 35.86,-4.481 8.36,0 17.33,0.692 26.89,2.09 9.56,1.387 18.53,4.07 26.89,8.059 8.36,3.984 15.34,9.453 20.92,16.421 5.58,6.965 8.37,15.825 8.37,26.565 0,11.54 -3.68,20.89 -11.04,28.06 -7.37,7.16 -17.02,13.13 -28.96,17.91 -11.94,4.77 -25.48,8.95 -40.6,12.54 -15.13,3.58 -30.45,7.57 -45.97,11.94 -15.93,3.98 -31.46,8.86 -46.58,14.63 -15.13,5.77 -28.66,13.23 -40.6,22.39 -11.94,9.15 -21.59,20.59 -28.95,34.33 -7.37,13.73 -11.05,30.35 -11.05,49.85 0,21.89 4.67,40.9 14.03,57.02 9.34,16.12 21.58,29.55 36.69,40.3 15.12,10.74 32.22,18.71 51.32,23.88 19.1,5.18 38.19,7.77 57.29,7.77 22.27,0 43.66,-2.5 64.15,-7.49 20.49,-5 38.68,-13.09 54.6,-24.28 15.92,-11.19 28.54,-25.47 37.9,-42.81 9.35,-17.36 14.02,-38.38 14.02,-63.08 h -90.62 c -0.8,12.75 -3.49,23.3 -8.07,31.67 -4.58,8.36 -10.65,14.93 -18.22,19.72 -7.57,4.77 -16.23,8.16 -25.99,10.15 -9.75,1.99 -20.41,2.99 -31.95,2.99 -7.58,0 -15.15,-0.8 -22.71,-2.39 -7.56,-1.59 -14.44,-4.38 -20.61,-8.36 -6.17,-3.98 -11.25,-8.96 -15.24,-14.93 -3.98,-5.97 -5.96,-13.53 -5.96,-22.68 0,-8.36 1.59,-15.12 4.77,-20.3 3.19,-5.18 9.46,-9.95 18.81,-14.33 9.36,-4.37 22.29,-8.76 38.81,-13.13 16.51,-4.38 38.1,-9.95 64.78,-16.71 7.95,-1.6 19,-4.48 33.13,-8.66 14.13,-4.19 28.16,-10.84 42.1,-20 13.93,-9.16 25.97,-21.4 36.13,-36.72 10.13,-15.32 15.21,-34.93 15.21,-58.8 0,-19.51 -3.79,-37.607 -11.35,-54.33 -7.55,-16.718 -18.79,-31.14 -33.71,-43.277 -14.92,-12.141 -33.43,-21.594 -55.52,-28.359 -22.09,-6.758 -47.65,-10.149 -76.7,-10.149 -23.47,0 -46.26,2.899 -68.35,8.684 -22.09,5.789 -41.58,14.879 -58.49,27.261 -16.92,12.383 -30.36,28.137 -40.3,47.278 -9.95,19.142 -14.72,41.852 -14.32,68.152 h 90.62 c 0,-14.34 2.59,-26.49 7.77,-36.45" /></g></g></svg>