<svg xmlns="http://www.w3.org/2000/svg" xmlns:svg="http://www.w3.org/2000/svg" version="1.1" xml:space="preserve" viewBox="0 0 24 24">
<g class="layer" id="svg_1">
   <path d="m17.61,6.37c0.4,0.4 0.94,0.62 1.51,0.63c0,0 0,0 0.01,0c0.49,0 0.95,-0.16 1.33,-0.47c-0.77,-1.21 -1.8,-2.26 -2.99,-3.05c-0.69,0.84 -0.64,2.09 0.13,2.87l0,0l0,0.01l0.01,0z" id="svg_5"/>
   <path d="m17.06,6.95c-1.14,-1.14 -1.78,-2.65 -1.77,-4.24c0,-0.11 0,-0.2 0.01,-0.31c-0.7,-0.26 -1.45,-0.43 -2.23,-0.52c-0.03,0.27 -0.04,0.55 -0.04,0.83c-0.01,2.21 0.85,4.29 2.43,5.86c1.58,1.56 3.67,2.43 5.89,2.44c0.01,0 0.02,0 0.04,0c0.2,0 0.4,-0.01 0.6,-0.03c-0.08,-0.77 -0.24,-1.53 -0.48,-2.24c-1.6,0.04 -3.23,-0.56 -4.44,-1.78l0,0l0,-0.01z" id="svg_7"/>
   <path d="m20.93,13.12c-2.26,-0.91 -4.28,-2.25 -6.01,-3.97c-1.73,-1.73 -3.07,-3.72 -3.98,-5.96c-0.17,-0.42 -0.33,-0.85 -0.47,-1.29c-0.77,0.11 -1.5,0.3 -2.19,0.55c0.17,0.54 0.36,1.07 0.57,1.58c1.02,2.52 2.53,4.77 4.47,6.71c1.95,1.94 4.22,3.44 6.76,4.46c0.41,0.17 0.84,0.33 1.25,0.46c0.27,-0.7 0.47,-1.43 0.59,-2.18c-0.33,-0.11 -0.66,-0.24 -0.99,-0.36l0,0l-0.01,0z" id="svg_9"/>
   <path d="m19.82,18.3l-14.22,-14.32c-0.6,0.47 -1.14,1 -1.61,1.58l14.24,14.34c0.59,-0.48 1.12,-1.01 1.58,-1.59l0,0l0.01,-0.01z" id="svg_11"/>
   <path d="m10.59,13.34c-1.95,-1.94 -4.22,-3.44 -6.76,-4.46c-0.48,-0.19 -0.97,-0.36 -1.45,-0.53c-0.26,0.7 -0.46,1.43 -0.56,2.19c0.39,0.12 0.78,0.27 1.17,0.42c2.26,0.91 4.28,2.25 6.01,3.97c1.73,1.73 3.07,3.72 3.98,5.96c0.15,0.36 0.29,0.74 0.41,1.11c0.77,-0.11 1.49,-0.31 2.18,-0.59c-0.15,-0.47 -0.32,-0.92 -0.51,-1.38c-1.02,-2.52 -2.52,-4.77 -4.47,-6.71l-0.01,0.01l0.01,0.01z" id="svg_13"/>
   <path d="m8.44,15.55c-1.57,-1.56 -3.67,-2.43 -5.89,-2.44c-0.26,0 -0.52,0.01 -0.77,0.04c0.09,0.77 0.26,1.52 0.52,2.24c0.08,0 0.15,0 0.23,0c1.57,0 3.14,0.6 4.33,1.78c1.14,1.14 1.78,2.65 1.77,4.24c0,0.07 0,0.14 0,0.2c0.71,0.25 1.46,0.4 2.24,0.48c0.02,-0.23 0.04,-0.45 0.04,-0.69c0.01,-2.22 -0.85,-4.29 -2.43,-5.86l0,0l-0.02,0.01l-0.01,0z" id="svg_15"/>
   <path d="m6.31,17.73c-0.79,-0.79 -2.04,-0.84 -2.9,-0.13c0.8,1.2 1.83,2.22 3.05,2.98c0.3,-0.37 0.46,-0.84 0.46,-1.32c0,-0.58 -0.22,-1.11 -0.62,-1.52l0.01,0l0,-0.01z" id="svg_17"/>
  </g>
</svg>